<svg version="1.1" xmlns="http://www.w3.org/2000/svg" viewBox="0 0 609 254">
  <!-- svg-source:excalidraw -->
  <defs>
    <style>
      @font-face {
        font-family: "Virgil";
        src: url("https://excalidraw.com/FG_Virgil.woff2");
      }
      @font-face {
        font-family: "Cascadia";
        src: url("https://excalidraw.com/Cascadia.woff2");
      }
    </style>
  </defs>
  <g transform="translate(210.5 105) rotate(0 87 33)"><path d="M-0.8580535408109426 0.8975315149873495 C57.61624961029739 -1.2941332911141217, 114.01037736162544 -0.30163125740364194, 175.33106728829446 -0.05092673934996128 M0.6042905179783702 -0.2924066660925746 C66.36149513609709 0.3979019164852797, 133.82222434375439 0.3854494035057723, 174.4796221284196 -0.16023905854672194 M172.60023375786844 -0.11627393402159214 C173.10630243660884 11.935429769940674, 171.8420804703422 28.53956839516759, 173.3985712770373 66.43411386571825 M174.32120847981426 -0.9454708872362971 C172.7463882093318 17.74216226600111, 173.97046820567923 34.172025834582755, 174.82734129112217 66.59146375674754 M172.8718240503222 67.81873310171068 C112.34771856013688 67.69195542605594, 48.966215990483775 68.75202719243244, 1.1261189822107553 64.88939029537141 M173.83409640472385 65.66755242366344 C106.92019615843894 66.0691725675203, 38.991986029036354 65.34138611594216, -0.9821251006796956 65.83926509041339 M1.824454152956605 66.22641736827791 C1.1471624572388828 50.79317664410919, 0.6403829653374851 37.75013939589262, 1.8912128452211618 -1.264748329296708 M0.24570697825402021 66.52154729980975 C-0.5167962130345404 42.068560347706075, -0.3849079128541052 18.248489846102885, -0.6165321739390492 -0.6245682118460536" stroke="#000000" stroke-width="1" fill="none"></path></g><g transform="translate(263.5 125) rotate(0 34.5 13)"><text x="34.5" y="18" font-family="Virgil" font-size="20px" fill="#000000" text-anchor="middle" style="white-space: pre;" direction="ltr">Service</text></g><g><g transform="translate(122.5 140) rotate(0 43.40708099951968 0.7076004398055034)"><path d="M0.5385189089924096 0.4462559726089239 C14.84184924786291 0.5586011316627264, 71.1226084547739 0.10050809644162648, 85.35852660797545 0.15923882983624926 M-0.6378973931260408 -0.3650635871104897 C14.054718714610999 0.010630528647452564, 73.19865217343602 1.906851635295898, 87.45205939216548 1.7802644667215648" stroke="#862e9c" stroke-width="1" fill="none"></path></g><g transform="translate(122.5 140) rotate(0 43.40708099951968 0.7076004398055034)"><path d="M59.85496774767536 9.655523268856046 C66.83123448819723 7.947626388619295, 75.30932256254776 6.294226396692377, 89.1674242301845 0.15636048251763013 M58.34902883865881 12.47844613099092 C67.88102202122272 9.336210144461642, 78.04015919056681 5.116090381630447, 86.55246428335094 1.424766880180687" stroke="#862e9c" stroke-width="1" fill="none"></path></g><g transform="translate(122.5 140) rotate(0 43.40708099951968 0.7076004398055034)"><path d="M60.16139998689701 -10.863397308713457 C66.96948912831466 -7.203290121115062, 75.36743126583701 -3.4900612081663818, 89.1674242301845 0.15636048251763013 M58.65546107788046 -8.040474446578584 C68.21138609802992 -4.483380202183861, 78.2704612135178 -2.0032737057965155, 86.55246428335094 1.424766880180687" stroke="#862e9c" stroke-width="1" fill="none"></path></g></g><g transform="translate(127.5 102) rotate(0 27 13)"><text x="0" y="18" font-family="Virgil" font-size="20px" fill="#862e9c" text-anchor="start" style="white-space: pre;" direction="ltr">Event</text></g><g transform="translate(397.5 102) rotate(0 40.5 13)"><text x="0" y="18" font-family="Virgil" font-size="20px" fill="#862e9c" text-anchor="start" style="white-space: pre;" direction="ltr">Outcome</text></g><g transform="translate(196 10) rotate(0 105.5 12.5)"><text x="105.5" y="20" font-family="Cascadia" font-size="20px" fill="#000000" text-anchor="middle" style="white-space: pre;" direction="ltr">Event-driven model</text></g><g><g transform="translate(386.2317635986951 138) rotate(0 42.961735892295906 0.22307637847848127)"><path d="M-0.5824449744075536 0.7986403729766607 C14.031532184531306 0.9436370518058538, 72.1484875279169 1.1092477824538944, 86.50591675899932 1.0292189028114078 M1.312632684689015 0.17232262345030902 C15.868985193030305 -0.01218969313427809, 71.1031177599791 -0.8248203435353936, 85.54182937247688 -0.5530159219913184" stroke="#862e9c" stroke-width="1" fill="none"></path></g><g transform="translate(386.2317635986951 138) rotate(0 42.961735892295906 0.22307637847848127)"><path d="M58.68302827139076 9.659162141270986 C64.74348828156074 6.15152761935216, 69.2486834358505 6.91252996934294, 84.95701604029173 -2.0773738313280043 M57.831583111515904 9.549849822074226 C67.37638165905346 5.154529986871454, 78.93236173291459 0.8489152344123871, 85.48369240546609 -0.8825505001284182" stroke="#862e9c" stroke-width="1" fill="none"></path></g><g transform="translate(386.2317635986951 138) rotate(0 42.961735892295906 0.22307637847848127)"><path d="M58.68120802479743 -10.862046377540516 C64.7692668731611 -10.227716132538685, 69.27482942204986 -5.32475785057292, 84.95701604029173 -2.0773738313280043 M57.82976286492257 -10.971358696737276 C67.28802342003917 -7.446165776609524, 78.8447060506926 -3.8312523521230775, 85.48369240546609 -0.8825505001284182" stroke="#862e9c" stroke-width="1" fill="none"></path></g></g><g transform="translate(10 41) rotate(0 294.5 101.5)"><path d="M0.6807596467435361 0.14890795722603797 C136.7551153839566 0.2612012039385736, 271.4303767303005 0.040222347851842644, 588.7217903159559 -0.659658493846655 M0.3933939386159182 -0.08118907101452351 C119.75145781589673 -0.7478412036709485, 239.62855741400273 -0.18891255901381354, 588.614954142645 -0.14858038313686847 M587.4066822200939 -0.5912642471389874 C589.2782455286417 54.12565582096041, 586.9227073142272 109.16996482752569, 587.6080682116647 204.09863886726174 M588.8538462008637 -0.8081229076725549 C587.2379028937748 59.00114419523127, 587.2537224167212 117.41600522298175, 588.2489474565924 202.53326596999608 M589.2526780866086 203.2239186860621 C390.23923082789406 204.25915169328823, 189.83992160018528 204.32801506132262, -0.7771118618547916 203.0333164073527 M589.0782831836492 202.60755792967976 C396.00378602566195 203.70950077063964, 204.04053650256242 204.07913574464246, -0.2595583152025938 202.6605668555945 M-1.563740235443224 201.7685189201337 C-0.20138869381570002 139.1981225595442, -0.13403811649135733 77.68239043712758, -0.5228146280307426 1.4706103280188931 M-0.11252019926612898 202.23726602468767 C0.18911712602016173 158.22444767532087, 1.0474686825648232 113.84061988141596, 0.633776311945004 -0.7611885027111358" stroke="#000000" stroke-width="1" fill="none"></path></g></svg>