<svg version="1.1" xmlns="http://www.w3.org/2000/svg" viewBox="0 0 609 259">
  <!-- svg-source:excalidraw -->
  <defs>
    <style>
      @font-face {
        font-family: "Virgil";
        src: url("https://excalidraw.com/FG_Virgil.woff2");
      }
      @font-face {
        font-family: "Cascadia";
        src: url("https://excalidraw.com/Cascadia.woff2");
      }
    </style>
  </defs>
  <g transform="translate(38 112) rotate(0 87 33)"><path d="M1.5109303779900074 -1.8797240443527699 C41.81873608790339 -0.4212942779436708, 84.53458089083435 0.17328410740941758, 175.47165818884972 -1.5875660367310047 M-0.7599822971969843 0.8945320043712854 C39.972999338060625 0.24006250228732817, 80.73191137798132 1.0541920336708426, 173.54128812812272 -0.48076738975942135 M174.72739072516563 -0.12230553105473518 C173.8890413752571 27.10383484698832, 174.11792070779953 52.92846689373255, 174.4388089962304 67.7490570358932 M174.0647966768593 -0.19961132667958736 C174.24534735206518 21.616084574908022, 173.8652378631011 43.56713547222317, 173.5224296357483 65.20094720460474 M174.13274343684319 65.6584398560226 C106.29855559058488 66.39634841177613, 35.51522910296916 67.9183636257425, -0.7849085740745068 65.6782208494842 M174.61321418546143 66.46194640733302 C127.64698693901303 65.84791986573488, 79.6567633394152 66.0925570570305, 0.47470723651349545 66.59301374293864 M-0.4310925416648388 64.73192129656672 C0.05202923055738207 49.1550113748759, -1.5580272889509796 34.49861460626125, -0.5567943267524242 -1.0189466662704945 M0.4672404434531927 66.16344592906535 C-0.29527818877249956 50.88554027825594, 0.45825261157006025 35.96674450598657, -0.20154947973787785 -0.9949364271014929" stroke="#000000" stroke-width="1" fill="none"></path></g><g transform="translate(79.5 132) rotate(0 46 13)"><text x="46" y="18" font-family="Virgil" font-size="20px" fill="#000000" text-anchor="middle" style="white-space: pre;" direction="ltr">Service A</text></g><g transform="translate(163 10) rotate(0 129 12.5)"><text x="129" y="20" font-family="Cascadia" font-size="20px" fill="#000000" text-anchor="middle" style="white-space: pre;" direction="ltr">Request/response model</text></g><g transform="translate(404 112) rotate(0 87 33)"><path d="M0.600251043215394 -1.2818929497152567 C68.65345850717277 3.0147989328019325, 133.29757211431863 1.3032661612145604, 172.08308639563623 0.6634037550538778 M-0.24206024128943682 -0.4899072824046016 C44.600714837387216 1.1934827047400178, 89.61274326536807 1.9118470328859987, 173.9469396201894 0.7224061610177159 M175.13443365134302 0.24678397737443447 C174.44385080637414 14.855622673220934, 174.95174836220224 30.54601005986333, 174.96202036179605 67.68488425575197 M173.02719632070514 -0.20640324335545301 C175.24852492081004 16.72740655206144, 173.98631017075854 33.01730784680694, 174.07737458031627 66.94836644548923 M175.46794220246377 65.03805512748659 C113.37664924208076 66.10759922238067, 49.72013449519872 65.98109223814681, -1.733682131394744 67.42983544431627 M174.89677465241405 66.20924667734653 C125.94178865626456 66.30222583869472, 76.53392466176302 66.66859851339832, 0.9184523550793529 66.6136320354417 M-0.4240646120160818 67.97711337171495 C0.947822872530669 41.12182562258094, 1.6703162230364978 16.62726136893034, 1.1684032324701548 -0.007565433159470558 M0.24384150188416243 66.47313745040447 C0.7919547674618661 49.459484872967, -0.7724736514128745 35.065656705014405, -0.7669181199744344 0.09543071407824755" stroke="#000000" stroke-width="1" fill="none"></path></g><g transform="translate(445 132) rotate(0 46.5 13)"><text x="46.5" y="18" font-family="Virgil" font-size="20px" fill="#000000" text-anchor="middle" style="white-space: pre;" direction="ltr">Service B</text></g><g><g transform="translate(210.73176359869558 130) rotate(0 96.21543850897814 -0.1043552796464553)"><path d="M0.9711645875126125 -0.11419617868959908 C33.12278374315551 0.07548738978803157, 160.59800055480258 0.99188852570951, 192.40898975133905 1.032816066965461 M0.021887266617268253 -1.219753117840737 C32.09747120342529 -1.336117927711457, 159.86026204344512 -1.0037932100705802, 191.6899799867534 -0.547530246656388" stroke="#862e9c" stroke-width="1" fill="none"></path></g><g transform="translate(210.73176359869558 130) rotate(0 96.21543850897814 -0.1043552796464553)"><path d="M163.23310295983748 10.229549676670509 C172.4540915668956 6.451999300962178, 178.252163802162 4.942950804283392, 190.6771714496427 -1.8284251165948808 M163.27864404607163 8.543323285437005 C174.4830951113848 6.182513551446249, 185.84370352955654 1.4040893411910096, 191.56754701258623 -0.5096262700296939" stroke="#862e9c" stroke-width="1" fill="none"></path></g><g transform="translate(210.73176359869558 130) rotate(0 96.21543850897814 -0.1043552796464553)"><path d="M163.38621521405406 -10.29108771653559 C172.54965472192546 -8.767474389630868, 178.3081822110467 -4.976598327023347, 190.6771714496427 -1.8284251165948808 M163.4317563002882 -11.977314107769093 C174.62943862264953 -6.209402136742967, 185.92938600822563 -2.8578235581231493, 191.56754701258623 -0.5096262700296939" stroke="#862e9c" stroke-width="1" fill="none"></path></g></g><g><g transform="translate(402.0136343615127 168) rotate(0 -94.0446203701012 -1.490833336813381)"><path d="M-0.7073502268642187 0.29719903729856023 C-32.357985179750244 -0.057856860244648534, -157.82691511227748 -2.595610426785434, -189.21139291489496 -3.2788657109253223 M1.122152174692601 -0.5923754134587944 C-30.23380171132274 -0.6876523959543576, -155.7932358854357 -1.6056515473406858, -187.07970542315394 -2.011951879598212" stroke="#862e9c" stroke-width="1" fill="none"></path></g><g transform="translate(402.0136343615127 168) rotate(0 -94.0446203701012 -1.490833336813381)"><path d="M-158.295988752306 -13.84242657235026 C-169.86448122189134 -10.107699097284822, -180.85572105278985 -4.32395442069342, -186.6810175594315 -0.9500821335241314 M-159.233313834094 -11.461449561064537 C-170.1851626500083 -8.464925239465131, -179.44061088944875 -3.854215655164369, -186.22048005782068 -2.3443418778479215" stroke="#862e9c" stroke-width="1" fill="none"></path></g><g transform="translate(402.0136343615127 168) rotate(0 -94.0446203701012 -1.490833336813381)"><path d="M-158.4938214256238 6.677828411913637 C-169.79514774479247 3.0735980881635125, -180.71562255143954 1.5172188243864166, -186.6810175594315 -0.9500821335241314 M-159.4311465074118 9.05880542319936 C-170.21063577990967 4.345096343692547, -179.3917532121292 1.2458200506396793, -186.22048005782068 -2.3443418778479215" stroke="#862e9c" stroke-width="1" fill="none"></path></g></g><g transform="translate(260 97) rotate(0 48 13)"><text x="0" y="18" font-family="Virgil" font-size="20px" fill="#862e9c" text-anchor="start" style="white-space: pre;" direction="ltr">1. Request</text></g><g transform="translate(252 170) rotate(0 59 13)"><text x="0" y="18" font-family="Virgil" font-size="20px" fill="#862e9c" text-anchor="start" style="white-space: pre;" direction="ltr">2. Response</text></g><g transform="translate(10 46) rotate(0 294.5 101.5)"><path d="M-0.09499310478568078 0.18783889040350915 C173.6017251445912 2.8944132269062104, 347.65841424968096 1.9981233299411834, 588.5875048972666 0.4488959573209286 M0.02912815921008587 -0.35462676994502546 C166.36483659641817 -2.2197595283575358, 331.9386687366292 -1.7407050416059793, 589.0705014955253 -0.022309501096606257 M588.4469629081619 -0.3809193161605492 C587.349173001201 56.84123110400519, 587.4241824737585 110.49753083260447, 589.4351551543009 201.55411405959757 M588.3311482774455 -0.8638530259511522 C589.6284559853158 52.758221520210135, 589.447578505582 105.502676953036, 589.1169103384638 202.67542638610914 M589.2848027803004 203.51500787958503 C418.6442799151875 204.97612560045346, 247.20596423391248 204.45696125280483, 0.6258899547159672 202.53400409445166 M588.9178263317793 202.7948613215238 C389.50611505238334 204.35962274037672, 189.54383118692783 204.01733857356382, -0.16571259386837484 203.08738137967885 M1.3135898529736414 204.20618009064668 C1.344381185561666 121.34735563804887, 1.6390884049055667 43.72023165199005, 0.048715148847140365 -0.46167079968711283 M0.6454725569737367 202.99488727924586 C-1.0819106975934543 148.17617958170285, -1.0095729618289269 92.2177080988029, 0.4306489847995452 -0.5896355411508374" stroke="#000000" stroke-width="1" fill="none"></path></g></svg>